<svg xmlns="http://www.w3.org/2000/svg" width="121" height="40" fill="none"><path fill="#656565" fill-rule="evenodd" d="M12.708 4.166a7.51 7.51 0 0 0-6.504 3.75L1.386 16.25a7.49 7.49 0 0 0 0 7.5l4.818 8.333a7.51 7.51 0 0 0 6.504 3.75h9.636a7.51 7.51 0 0 0 6.504-3.75l4.818-8.333a7.49 7.49 0 0 0 0-7.5l-4.818-8.334a7.51 7.51 0 0 0-6.504-3.75zm9.636 5H16.32a1.25 1.25 0 0 0-1.083 1.875q2.236 3.853 4.468 7.709a2.5 2.5 0 0 1 0 2.5q-2.233 3.855-4.468 7.708a1.25 1.25 0 0 0 1.084 1.875h6.022c.894 0 1.72-.477 2.168-1.25l4.818-8.333a2.5 2.5 0 0 0 0-2.5l-4.818-8.334a2.5 2.5 0 0 0-2.168-1.25" clip-rule="evenodd"/><path fill="#656565" d="M55.896 17.105h-3.785c-.428-1.507-1.51-2.317-3.042-2.317-2.32 0-3.65 1.935-3.65 5.085 0 3.172 1.307 5.04 3.65 5.04 1.442 0 2.569-.765 2.997-2.205h3.83c-.788 3.375-3.515 5.152-6.782 5.152-4.573 0-7.39-3.037-7.39-7.987s2.817-8.033 7.435-8.033c3.29 0 6.084 1.778 6.737 5.265m6.811 10.755c-3.673 0-5.949-2.43-5.949-6.412 0-4.118 2.343-6.435 5.948-6.435 3.673 0 5.971 2.475 5.971 6.435 0 4.095-2.366 6.412-5.97 6.412m0-2.79c1.6 0 2.433-1.26 2.433-3.622 0-2.34-.856-3.645-2.434-3.645-1.577 0-2.41 1.282-2.41 3.645 0 2.34.856 3.622 2.41 3.622m7.344 2.43V15.395h3.447v1.688c.766-1.44 1.938-2.07 3.177-2.07.495 0 .946.135 1.194.382v2.903a6.2 6.2 0 0 0-1.374-.135c-2.073 0-2.997 1.17-2.997 3.082V27.5zM90 23.518c-.631 2.79-2.885 4.342-5.859 4.342-3.762 0-6.083-2.43-6.083-6.412 0-4.118 2.343-6.435 5.948-6.435 3.628 0 5.903 2.407 5.903 6.367v.765h-8.336c.18 1.935 1.081 2.97 2.568 2.97 1.127 0 1.893-.495 2.253-1.597zm-5.994-5.76c-1.284 0-2.095.832-2.365 2.407h4.709c-.27-1.575-1.082-2.407-2.344-2.407M98.74 27.86c-4.754 0-7.683-3.06-7.683-7.987 0-4.95 2.929-8.033 7.683-8.033 4.731 0 7.66 3.083 7.66 8.033 0 4.927-2.929 7.987-7.66 7.987m0-2.947c2.501 0 3.965-1.89 3.965-5.04s-1.464-5.085-3.965-5.085c-2.524 0-3.988 1.912-3.988 5.085 0 3.15 1.464 5.04 3.988 5.04m12.635-8.775c0 3.262 9.012.495 9.012 6.75 0 3.15-2.613 4.972-6.196 4.972-3.627 0-6.218-1.665-6.759-5.152h3.808c.292 1.507 1.351 2.34 2.974 2.34 1.622 0 2.478-.653 2.478-1.71 0-3.42-9.035-.81-9.035-6.863 0-2.565 2.141-4.635 5.903-4.635 3.177 0 5.926 1.508 6.399 5.04h-3.853c-.315-1.507-1.194-2.227-2.681-2.227-1.262 0-2.05.585-2.05 1.485"/></svg>